<svg width="112" height="32" viewBox="0 0 112 32" fill="none" xmlns="http://www.w3.org/2000/svg">
<path d="M15.5 6C9.69875 6 5 10.5882 5 16.2529C5 20.7899 8.00562 24.6219 12.1794 25.9804C12.7044 26.0701 12.9012 25.7625 12.9012 25.4934C12.9012 25.2499 12.8881 24.4425 12.8881 23.5838C10.25 24.058 9.5675 22.9558 9.3575 22.3791C9.23938 22.0843 8.7275 21.1743 8.28125 20.9308C7.91375 20.7386 7.38875 20.2644 8.26813 20.2516C9.095 20.2388 9.68563 20.9949 9.8825 21.3025C10.8275 22.8533 12.3369 22.4175 12.9406 22.1484C13.0325 21.4819 13.3081 21.0334 13.61 20.777C11.2737 20.5207 8.8325 19.6364 8.8325 15.7147C8.8325 14.5997 9.23938 13.6769 9.90875 12.9592C9.80375 12.7029 9.43625 11.6519 10.0138 10.2422C10.0138 10.2422 10.8931 9.97301 12.9012 11.2931C13.7413 11.0624 14.6338 10.947 15.5263 10.947C16.4188 10.947 17.3113 11.0624 18.1513 11.2931C20.1594 9.9602 21.0387 10.2422 21.0387 10.2422C21.6163 11.6519 21.2488 12.7029 21.1438 12.9592C21.8131 13.6769 22.22 14.5868 22.22 15.7147C22.22 19.6492 19.7656 20.5207 17.4294 20.777C17.81 21.0975 18.1381 21.7126 18.1381 22.6738C18.1381 24.0452 18.125 25.1474 18.125 25.4934C18.125 25.7625 18.3219 26.0829 18.8469 25.9804C20.9314 25.2935 22.7428 23.9854 24.026 22.2403C25.3092 20.4953 25.9996 18.4012 26 16.2529C26 10.5882 21.3013 6 15.5 6Z" fill="#ABB2BF"/>
<path d="M56 16C56 15.1159 56.3687 14.2681 57.0251 13.643C57.6815 13.0179 58.5717 12.6667 59.5 12.6667C60.4283 12.6667 61.3185 13.0179 61.9749 13.643C62.6313 14.2681 63 15.1159 63 16C63 16.8841 62.6313 17.7319 61.9749 18.357C61.3185 18.9821 60.4283 19.3333 59.5 19.3333C58.5717 19.3333 57.6815 18.9821 57.0251 18.357C56.3687 17.7319 56 16.8841 56 16ZM49 22.6667C49 21.7826 49.3687 20.9348 50.0251 20.3096C50.6815 19.6845 51.5717 19.3333 52.5 19.3333H56V22.6667C56 23.5507 55.6313 24.3986 54.9749 25.0237C54.3185 25.6488 53.4283 26 52.5 26C51.5717 26 50.6815 25.6488 50.0251 25.0237C49.3687 24.3986 49 23.5507 49 22.6667ZM56 6V12.6667H59.5C60.4283 12.6667 61.3185 12.3155 61.9749 11.6904C62.6313 11.0652 63 10.2174 63 9.33333C63 8.44928 62.6313 7.60143 61.9749 6.97631C61.3185 6.35119 60.4283 6 59.5 6H56ZM49 9.33333C49 10.2174 49.3687 11.0652 50.0251 11.6904C50.6815 12.3155 51.5717 12.6667 52.5 12.6667H56V6H52.5C51.5717 6 50.6815 6.35119 50.0251 6.97631C49.3687 7.60143 49 8.44928 49 9.33333ZM49 16C49 16.8841 49.3687 17.7319 50.0251 18.357C50.6815 18.9821 51.5717 19.3333 52.5 19.3333H56V12.6667H52.5C51.5717 12.6667 50.6815 13.0179 50.0251 13.643C49.3687 14.2681 49 15.1159 49 16Z" fill="#ABB2BF"/>
<path d="M104.164 7.65906C102.543 6.87826 100.832 6.32099 99.0751 6.00114C99.0592 5.99832 99.0428 6.00076 99.0283 6.0081C99.0137 6.01544 99.0017 6.02733 98.9938 6.04214C98.7735 6.45211 98.5298 6.98835 98.3595 7.40816C96.4651 7.10643 94.5383 7.10643 92.6439 7.40816C92.4539 6.9405 92.239 6.48443 92.0002 6.04214C91.9922 6.02749 91.9801 6.01574 91.9656 6.00842C91.9511 6.0011 91.9348 5.99856 91.9189 6.00114C90.1611 6.31928 88.4502 6.87684 86.8299 7.65906C86.816 7.66461 86.8044 7.67504 86.7971 7.68858C83.5565 12.7706 82.6675 17.7279 83.1034 22.623C83.105 22.6459 83.119 22.6689 83.1362 22.6836C85.0232 24.1507 87.134 25.2708 89.3783 25.9962C89.3942 26.0014 89.4112 26.0013 89.4269 25.9957C89.4427 25.99 89.4563 25.9793 89.4658 25.965C89.9471 25.2763 90.3752 24.5498 90.7439 23.7856C90.7516 23.7699 90.7543 23.752 90.7514 23.7345C90.7486 23.7171 90.7405 23.7011 90.7283 23.6889C90.7202 23.6809 90.7107 23.6747 90.7002 23.6708C90.027 23.3993 89.375 23.0731 88.7502 22.6951C88.7328 22.6847 88.7198 22.6677 88.714 22.6476C88.7081 22.6274 88.7099 22.6057 88.719 22.5869C88.7243 22.5747 88.7323 22.564 88.7424 22.5557C88.8736 22.4524 89.0049 22.3442 89.1299 22.236C89.1409 22.2266 89.1542 22.2206 89.1682 22.2186C89.1823 22.2166 89.1965 22.2186 89.2096 22.2245C93.3017 24.1858 97.7314 24.1858 101.774 22.2245C101.787 22.2183 101.802 22.2162 101.816 22.2182C101.831 22.2202 101.845 22.2264 101.856 22.236C101.981 22.3442 102.113 22.4524 102.244 22.5557C102.254 22.5639 102.263 22.5747 102.269 22.5872C102.274 22.5996 102.277 22.6134 102.276 22.6272C102.276 22.641 102.272 22.6544 102.265 22.6663C102.258 22.6781 102.249 22.688 102.238 22.6951C101.614 23.0765 100.961 23.4024 100.286 23.6692C100.275 23.6733 100.265 23.6798 100.257 23.6883C100.249 23.6968 100.243 23.7071 100.239 23.7184C100.236 23.7294 100.234 23.741 100.235 23.7525C100.236 23.7641 100.239 23.7754 100.244 23.7856C100.619 24.5482 101.049 25.2763 101.52 25.965C101.53 25.9793 101.544 25.99 101.559 25.9957C101.575 26.0013 101.592 26.0014 101.608 25.9962C103.856 25.2731 105.97 24.1528 107.859 22.6836C107.869 22.6768 107.877 22.6677 107.882 22.6572C107.888 22.6467 107.891 22.635 107.892 22.623C108.414 16.9637 107.019 12.0474 104.195 7.69022C104.193 7.68302 104.188 7.67653 104.183 7.67116C104.177 7.66579 104.171 7.66167 104.164 7.65906ZM91.3549 19.6417C90.1221 19.6417 89.108 18.4544 89.108 16.9982C89.108 15.5403 90.1033 14.353 91.3549 14.353C92.6158 14.353 93.6205 15.5502 93.6017 16.9982C93.6017 18.4544 92.6064 19.6417 91.3549 19.6417ZM99.661 19.6417C98.4298 19.6417 97.4142 18.4544 97.4142 16.9982C97.4142 15.5403 98.4095 14.353 99.661 14.353C100.922 14.353 101.928 15.5502 101.908 16.9982C101.908 18.4544 100.922 19.6417 99.661 19.6417Z" fill="#ABB2BF"/>
</svg>
